# Blender v2.80 (sub 75) OBJ File: ''
# www.blender.org
mtllib studio.mtl
o Studio.001
v -44.816338 -0.000009 26.740351
v 23.674824 -0.000009 26.740351
v 23.674824 0.000019 -58.818691
v -44.816338 0.000019 -58.818691
v 23.674824 7.874038 -66.692703
v 23.674824 39.972736 -66.692688
v -44.816338 39.972736 -66.692688
v -44.816338 7.874038 -66.692703
v -44.816338 39.972706 26.740364
v -44.816338 0.054701 -60.076347
v -44.816338 0.218743 -61.224636
v -44.816338 0.492146 -62.263569
v -44.816338 0.874912 -63.193142
v -44.816338 1.367038 -64.013351
v -44.816338 1.968525 -64.724197
v -44.816338 2.679374 -65.325684
v -44.816338 3.499584 -65.817810
v -44.816338 4.429155 -66.200577
v -44.816338 5.468088 -66.473984
v -44.816338 6.616382 -66.638023
v 23.674824 0.054701 -60.076347
v 23.674824 0.218743 -61.224636
v 23.674824 0.492146 -62.263569
v 23.674824 0.874912 -63.193142
v 23.674824 1.367038 -64.013351
v 23.674824 1.968525 -64.724197
v 23.674824 2.679374 -65.325684
v 23.674824 3.499584 -65.817810
v 23.674824 4.429155 -66.200577
v 23.674824 5.468088 -66.473984
v 23.674824 6.616382 -66.638023
vt 1.000000 0.000000
vt 0.000000 0.000000
vt 0.000000 0.915700
vt 1.000000 0.915700
vt 0.000000 0.197000
vt 0.000000 1.000000
vt 1.000000 1.000000
vt 1.000000 0.197000
vt 0.000000 0.197000
vt 0.000000 1.000000
vt 1.000000 1.000000
vt 0.084300 0.000000
vt 0.070800 0.001400
vt 0.058500 0.005500
vt 0.047400 0.012300
vt 0.037500 0.021900
vt 0.028700 0.034200
vt 0.021100 0.049200
vt 0.014600 0.067000
vt 0.009400 0.087500
vt 0.005300 0.110800
vt 0.002300 0.136800
vt 0.000600 0.165500
vt 1.000000 -0.040800
vt 0.000000 -0.040800
vt 0.000000 -0.021000
vt 1.000000 -0.021000
vt 0.000000 -0.001100
vt 1.000000 -0.001100
vt 0.000000 0.018700
vt 1.000000 0.018700
vt 0.000000 0.038500
vt 1.000000 0.038500
vt 0.000000 0.058300
vt 1.000000 0.058300
vt 0.000000 0.078100
vt 1.000000 0.078100
vt 0.000000 0.097900
vt 1.000000 0.097900
vt 0.000000 0.117700
vt 1.000000 0.117700
vt 0.000000 0.137500
vt 1.000000 0.137500
vt 0.000000 0.157400
vt 1.000000 0.157400
vt 0.000000 0.177200
vt 1.000000 0.177200
vn 0.7071 0.7071 0.0000
vn 0.0000 1.0000 0.0000
vn 0.0000 0.9998 0.0217
vn 0.7022 0.7118 0.0155
vn 0.0000 0.0217 0.9998
vn 0.0000 -0.0000 1.0000
vn 0.7071 -0.0000 0.7071
vn 0.7022 0.0155 0.7118
vn 1.0000 0.0000 0.0000
vn 0.6962 0.7148 0.0664
vn 0.6944 0.7053 0.1427
vn 0.6924 0.6840 0.2297
vn 0.6906 0.6462 0.3246
vn 0.6894 0.5890 0.4217
vn 0.6889 0.5126 0.5126
vn 0.6894 0.4217 0.5890
vn 0.6906 0.3246 0.6462
vn 0.6924 0.2297 0.6840
vn 0.6944 0.1427 0.7053
vn 0.6962 0.0664 0.7148
vn 0.0000 0.9957 0.0925
vn 0.0000 0.9801 0.1983
vn 0.0000 0.9480 0.3183
vn 0.0000 0.8936 0.4489
vn 0.0000 0.8131 0.5821
vn 0.0000 0.7071 0.7071
vn 0.0000 0.5821 0.8131
vn 0.0000 0.4489 0.8936
vn 0.0000 0.3183 0.9480
vn 0.0000 0.1983 0.9801
vn 0.0000 0.0925 0.9957
usemtl wire_088177027.001
s 1
f 1/1/1 2/2/2 3/3/3 4/4/4
f 5/5/5 6/6/6 7/7/7 8/8/8
f 8/9/8 7/10/7 9/11/9 1/1/1 4/12/4 10/13/10 11/14/11 12/15/12 13/16/13 14/17/14 15/18/15 16/19/16 17/20/17 18/21/18 19/22/19 20/23/20
f 4/24/4 3/25/3 21/26/21 10/27/10
f 10/27/10 21/26/21 22/28/22 11/29/11
f 11/29/11 22/28/22 23/30/23 12/31/12
f 12/31/12 23/30/23 24/32/24 13/33/13
f 13/33/13 24/32/24 25/34/25 14/35/14
f 14/35/14 25/34/25 26/36/26 15/37/15
f 15/37/15 26/36/26 27/38/27 16/39/16
f 16/39/16 27/38/27 28/40/28 17/41/17
f 17/41/17 28/40/28 29/42/29 18/43/18
f 18/43/18 29/42/29 30/44/30 19/45/19
f 19/45/19 30/44/30 31/46/31 20/47/20
f 20/47/20 31/46/31 5/5/5 8/8/8
